<?xml version="1.0" standalone="no"?>
<!DOCTYPE svg PUBLIC "-//W3C//DTD SVG 20010904//EN"
 "http://www.w3.org/TR/2001/REC-SVG-20010904/DTD/svg10.dtd">
<svg version="1.0" xmlns="http://www.w3.org/2000/svg"
 width="700.000000pt" height="700.000000pt" viewBox="0 0 700.000000 700.000000"
 preserveAspectRatio="xMidYMid meet">
<metadata>
Created by potrace 1.11, written by Peter Selinger 2001-2013
</metadata>
<g transform="translate(0.000000,700.000000) scale(0.100000,-0.100000)"
fill="#000000" stroke="none">
<path d="M3215 6989 c-720 -62 -1384 -330 -1944 -786 -134 -110 -361 -336
-474 -474 -877 -1072 -1045 -2553 -431 -3789 672 -1352 2129 -2116 3629 -1904
1148 162 2137 880 2645 1919 98 200 171 387 224 575 285 1013 113 2088 -472
2945 -173 255 -436 542 -663 728 -642 523 -1429 802 -2249 796 -91 -1 -210 -6
-265 -10z m-535 -973 c63 -33 105 -73 136 -128 26 -47 29 -63 29 -138 0 -75
-3 -91 -29 -138 -69 -124 -220 -185 -364 -148 -147 37 -232 142 -232 287 0
129 71 228 197 275 55 20 216 14 263 -10z m1995 -1076 c172 -32 362 -112 523
-220 51 -34 92 -64 92 -66 0 -6 -159 -222 -195 -266 l-22 -26 -74 50 c-92 62
-254 141 -334 163 -151 40 -380 27 -497 -29 -75 -35 -159 -126 -189 -203 -27
-73 -30 -189 -5 -247 44 -100 183 -202 376 -277 365 -141 565 -224 633 -263
298 -170 437 -427 398 -733 -47 -368 -310 -616 -739 -699 -121 -24 -373 -23
-507 0 -244 44 -531 175 -734 335 l-25 19 113 151 c62 83 115 151 118 151 2 0
48 -31 101 -70 136 -97 310 -185 429 -217 84 -22 120 -26 253 -26 120 -1 170
3 220 17 141 39 246 121 298 234 20 43 27 78 30 143 6 124 -12 172 -98 263
-104 109 -177 146 -670 336 -47 18 -129 54 -183 81 -366 180 -526 450 -463
783 66 342 344 573 756 626 82 11 315 5 395 -10z m-1915 -1617 c0 -999 -4
-1601 -10 -1658 -24 -206 -103 -409 -202 -517 -64 -69 -145 -119 -253 -155
-76 -26 -91 -27 -275 -28 -171 0 -205 3 -276 22 -45 12 -92 27 -106 32 l-26
10 47 168 c53 191 36 176 170 148 163 -34 314 -2 377 80 34 45 70 152 83 248
8 53 11 588 11 1648 l0 1569 230 0 230 0 0 -1567z"/>
</g>
</svg>
